<?xml version="1.0" encoding="UTF-8" standalone="no"?>
<!-- Created with Inkscape (http://www.inkscape.org/) -->

<svg
   width="56.015347mm"
   height="12.982729mm"
   viewBox="0 0 56.015347 12.982729"
   version="1.1"
   id="svg233"
   inkscape:version="1.1.2 (0a00cf5339, 2022-02-04)"
   sodipodi:docname="logo-dark.svg"
   xmlns:inkscape="http://www.inkscape.org/namespaces/inkscape"
   xmlns:sodipodi="http://sodipodi.sourceforge.net/DTD/sodipodi-0.dtd"
   xmlns="http://www.w3.org/2000/svg"
   xmlns:svg="http://www.w3.org/2000/svg">
  <sodipodi:namedview
     id="namedview235"
     pagecolor="#ffffff"
     bordercolor="#666666"
     borderopacity="1.0"
     inkscape:pageshadow="2"
     inkscape:pageopacity="0.0"
     inkscape:pagecheckerboard="0"
     inkscape:document-units="mm"
     showgrid="false"
     fit-margin-top="0"
     fit-margin-left="0"
     fit-margin-right="0"
     fit-margin-bottom="0"
     inkscape:zoom="3.1108586"
     inkscape:cx="78.756393"
     inkscape:cy="107.20513"
     inkscape:window-width="1547"
     inkscape:window-height="1085"
     inkscape:window-x="2543"
     inkscape:window-y="288"
     inkscape:window-maximized="0"
     inkscape:current-layer="layer1" />
  <defs
     id="defs230" />
  <g
     inkscape:label="Layer 1"
     inkscape:groupmode="layer"
     id="layer1"
     transform="translate(-68.709486,-7.3866832)">
    <path
       d="m 79.148218,10.625156 c -0.07009,0 -0.110139,0.155213 -0.110139,0.155213 0,0 0.525716,0.548247 0.588302,0.588302 0.06258,0.04006 0.07009,-0.05508 0.07762,-0.110149 A 2.3957654,2.3957654 0 0 0 79.14822,10.625156 Z m -0.265375,0.523213 c -0.03252,0.03255 -0.165224,0.125172 -0.142692,0.157715 0.02257,0.03255 0.791077,0.703459 0.823621,0.710969 0.03252,0.0075 0.05256,-0.03255 0.06258,-0.110148 a 3.4572118,3.4572118 0 0 0 -0.7435,-0.76855 z m -0.310439,3.517293 c -0.831134,0.172734 -1.071461,0.705962 -1.126537,1.16659 -0.05509,0.460628 0.147703,1.048929 0.766046,0.96131 0.618343,-0.08761 1.251705,-0.475648 1.219161,-1.08648 -0.03252,-0.610833 -0.357988,-1.146563 -0.85867,-1.04142 z m 0.147703,1.752389 c -0.383019,0.20279 -0.766042,0.232821 -0.94629,-0.04005 a 1.0789706,1.0789706 0 0 1 0.79859,-1.477012 c 0.300418,-0.06509 0.648385,0.165225 0.678424,0.650888 0.0302,0.485661 -0.150193,0.670914 -0.533226,0.876192 z m -1.89258,1.752387 c -0.986343,0.210289 -0.806096,1.063952 -0.383019,1.126537 a 0.71347246,0.71347246 0 0 0 0.85867,-0.588304 0.4330903,0.4330903 0 0 0 -0.48316,-0.528218 z m 0.250343,0.688438 c -0.157725,0.265375 -0.540735,0.357989 -0.673419,0.170235 -0.132671,-0.187756 -0.09514,-0.538232 0.398042,-0.663403 0.267864,-0.0601 0.420575,0.235309 0.267864,0.503186 z m 3.532316,-6.616516 c -0.162736,-0.282886 0.05509,-0.625853 0.05509,-0.916249 0,-0.290395 -0.383026,-1.001365 -1.977697,-2.1679547 -1.59466,-1.1665896 -2.618558,-1.8299942 -3.607404,-1.7674086 a 5.9556175,5.9556175 0 0 0 -2.293128,0.5632676 9.5129656,9.5129656 0 0 0 -2.588528,2.0978597 c -0.728491,0.85116 -1.534591,2.075328 -1.487025,3.442191 0.04755,1.366862 0.360491,2.888936 0.923758,3.747606 a 9.0573445,9.0573445 0 0 0 2.753753,2.581019 c 1.001366,0.530723 2.448337,0.618343 3.567361,0.500681 1.119028,-0.117671 2.087847,-0.345468 2.886437,-0.961309 0.79859,-0.615838 1.026397,-1.151568 1.572143,-2.293125 0.545742,-1.141557 1.0264,-2.253071 1.001362,-3.151795 -0.02504,-0.898725 -0.640871,-1.394401 -0.806096,-1.674783 z m -7.294945,7.395079 a 4.5987679,4.5987679 0 0 1 -0.783567,-0.33546 c -0.305392,-0.150202 -0.555731,-0.385522 -0.500655,-0.385522 a 1.451979,1.451979 0 0 1 0.868682,0.125172 c 0.317939,0.217788 0.498179,0.595814 0.415567,0.595814 z m 6.759214,-5.785385 c 0.05509,0.04006 0.751024,0.518206 0.751024,0.603322 a 2.0277638,2.0277638 0 0 1 -0.07009,0.438097 c -0.02489,0.02253 -0.853662,-0.540737 -0.883704,-0.540737 -0.02987,0 -0.157725,0.08762 -0.110139,0.165225 0.04755,0.07761 0.931268,0.548247 0.931268,0.618342 a 1.209148,1.209148 0 0 1 -0.150192,0.405553 7.5653111,7.5653111 0 0 0 -0.803595,-0.585798 c -0.04755,0.03255 -0.125171,0.1477 -0.09514,0.187757 0.02987,0.04006 0.853663,0.548247 0.836138,0.603322 -0.01759,0.05508 -0.140204,0.335454 -0.140204,0.335454 a 7.6954891,7.6954891 0 0 0 -0.663387,-0.53072 c -0.04005,0 -0.125171,0.162722 -0.09514,0.202776 a 5.8154261,5.8154261 0 0 1 0.658396,0.500682 c 0,0.06258 -0.533222,1.134047 -0.783564,1.642238 a 3.3095106,3.3095106 0 0 1 -1.281747,1.321803 c -0.548248,0.312928 -1.063952,0.500682 -2.145425,0.580792 a 9.4804214,9.4804214 0 0 1 -2.04028,-0.06259 2.4458336,2.4458336 0 0 1 -0.375513,-0.06259 c 0,0 -0.345469,-0.868686 -0.831131,-0.938781 a 5.7052761,5.7052761 0 0 0 -1.08648,-0.02489 8.3639002,8.3639002 0 0 1 -1.37688,-1.351842 c -0.500675,-0.681075 -1.031398,-2.278251 -1.078964,-3.066825 a 5.1395051,5.1395051 0 0 1 0.688441,-3.05166 7.3249834,7.3249834 0 0 1 5.03436,-3.4672252 c 0.911241,-0.16773 1.729858,0.5257163 2.816338,1.2517061 1.086481,0.7259888 2.355714,2.1203901 2.338189,2.2856151 -0.01759,0.165224 -0.272874,0.565771 -0.04257,0.946289 0.230332,0.380519 0.670917,0.891215 0.733502,1.281747 a 3.5999066,3.5999066 0 0 1 0.04755,0.680929 c 0,0 -0.673419,-0.530724 -0.695947,-0.523214 -0.02257,0.0075 -0.135193,0.117662 -0.08512,0.155212 z m -8.123573,2.488389 a 7.0521119,7.0521119 0 0 0 0.703458,0.94629 c 0.04755,0.03252 0.06258,-0.02257 0.09514,-0.05509 0.03252,-0.03252 -0.60332,-0.93878 -0.60332,-1.001366 a 1.0213921,1.0213921 0 0 0 -0.195257,0.110139 z m -0.320427,0.110139 c -0.05509,-0.01493 -0.157725,0.07008 -0.172724,0.102639 a 6.25853,6.25853 0 0 0 0.813609,0.968822 c 0.07762,0 0.04755,-0.01493 0.07009,-0.07008 a 5.6577114,5.6577114 0 0 0 -0.71097,-1.001366 z m -0.352982,0.342966 c -0.07009,0 -0.187756,0.08011 -0.187756,0.135193 a 5.0068243,5.0068243 0 0 0 0.673419,0.773553 0.15270813,0.15270813 0 0 0 0.13267,-0.06259 c 0.04755,-0.05509 -0.550749,-0.846153 -0.618343,-0.846153 z m 3.254454,-0.883691 a 0.47815172,0.47815172 0 0 0 -0.265375,0.838644 c 0.265375,0.225321 0.703458,0.232821 0.836138,-0.187757 a 0.50068243,0.50068243 0 0 0 -0.563253,-0.650887 z m 0.39053,0.590807 a 0.31042311,0.31042311 0 0 1 -0.525716,0.117671 0.30040945,0.30040945 0 0 1 0.167713,-0.525715 0.31292653,0.31292653 0 0 1 0.365499,0.408057 z m -3.206868,-1.87005 c -0.172724,-0.320434 -0.618343,-0.30291 -0.8061,-0.23532 -0.232821,0.08512 -0.413061,0.530724 -0.420574,0.791078 a 0.44310392,0.44310392 0 0 0 0.573282,0.373008 c 0.310439,-0.06259 0.826126,-0.618342 0.653392,-0.928766 z m -0.63086,0.751024 a 0.30040945,0.30040945 0 0 1 -0.390533,-0.250341 c 0,-0.172734 0.125171,-0.473145 0.285385,-0.530723 a 0.45562101,0.45562101 0 0 1 0.540738,0.157715 c 0.117672,0.187756 -0.230299,0.560764 -0.435593,0.603322 z m 2.596038,-4.235772 c -0.430587,0.05508 -1.314291,0.265361 -1.401911,1.096494 -0.08761,0.831133 0.297895,1.564633 1.439462,1.664769 1.141556,0.100137 1.752386,-0.781064 1.564633,-1.752388 -0.187757,-0.971324 -0.931271,-1.093991 -1.602184,-1.008875 z m 0.06258,2.305642 c -0.768548,-0.06759 -1.023895,-0.560764 -0.966317,-1.119025 0.05757,-0.558261 0.650887,-0.698453 0.938781,-0.736004 0.450613,-0.05508 0.956302,0.02754 1.076465,0.678425 0.120161,0.650888 -0.282896,1.244196 -1.048929,1.176604 z m -3.201863,-0.52822 c 0.05509,0 0.04755,-0.150205 0.23531,-0.791078 a 1.6973134,1.6973134 0 0 1 0.728491,-0.923759 c 0.0302,-0.04756 -0.165224,-0.16773 -0.195256,-0.155213 -0.220311,0.07761 -0.580792,0.633364 -0.713473,0.968821 a 5.8354535,5.8354535 0 0 0 -0.250342,0.861174 c 0.0076,0.02253 0.142693,0.04756 0.195257,0.04006 z m 6.298582,-2.771277 c -0.60332,0.150206 -0.77105,0.723486 -0.520708,1.033909 0.250342,0.310423 1.031404,0.383022 1.134047,-0.195266 0.102639,-0.578289 -0.277886,-0.921256 -0.613339,-0.838643 z m 0.39554,0.76354 c -0.06507,0.370506 -0.560765,0.325445 -0.725989,0.125171 -0.165225,-0.200273 -0.05509,-0.56577 0.330449,-0.665907 0.2153,-0.05007 0.460628,0.170232 0.39554,0.540736 z"
       fill="#1d1d1b"
       id="path133"
       style="stroke-width:0.250341;fill:#ffffff" />
    <text
       xml:space="preserve"
       style="font-style:normal;font-weight:normal;font-size:11.3719px;line-height:1.25;font-family:sans-serif;letter-spacing:1.77686px;fill:#ffffff;fill-opacity:1;stroke:none;stroke-width:0.118457"
       x="86.802399"
       y="17.84684"
       id="text2166"><tspan
         sodipodi:role="line"
         id="tspan2164"
         style="font-style:normal;font-variant:normal;font-weight:500;font-stretch:normal;font-size:11.3719px;font-family:'IBM Plex Sans';-inkscape-font-specification:'IBM Plex Sans Medium';stroke-width:0.118457;fill:#ffffff"
         x="86.802399"
         y="17.84684">MOON</tspan></text>
    <path
       d="M 72.327299,24.393588 V 9.5697081 l 2.644498,0.1976933 2.644498,0.1976932 3.945323,7.5404284 c 2.169927,4.147236 4.14784,7.546619 4.395362,7.554184 0.247521,0.0076 2.272685,-3.453249 4.500365,-7.690701 l 4.050326,-7.7044584 2.41091,-0.010454 2.41091,-0.010454 V 24.430554 39.217469 H 97.400763 95.472035 V 27.645101 c 0,-10.800152 -0.496033,-13.853325 -1.645088,-10.125822 -0.569349,1.846949 -7.56518,14.602337 -8.016277,14.615951 -0.18655,0.0057 -2.211714,-3.600994 -4.500366,-8.014719 -2.288652,-4.413725 -4.378167,-8.03009 -4.643367,-8.036366 -0.2652,-0.0063 -0.482182,5.196154 -0.482182,11.560956 v 11.572368 h -1.928728 -1.928728 z"
       id="path31874"
       style="stroke-width:0.642909;fill:#ffffff"
       transform="matrix(0.26458333,0,0,0.26458333,68.709486,7.3866832)" />
    <path
       d="M 72.327299,24.393588 V 9.5697081 l 2.644498,0.1976933 2.644498,0.1976932 3.945323,7.5404284 c 2.169927,4.147236 4.14281,7.546619 4.384183,7.554184 0.241374,0.0076 2.266538,-3.455606 4.500366,-7.695939 l 4.061504,-7.7096953 2.41091,-0.00522 2.41091,-0.00522 V 24.430554 39.217469 H 97.400763 95.472035 V 27.645101 c 0,-7.286305 -0.238114,-11.572368 -0.642909,-11.572368 -0.3536,0 -0.64291,0.320208 -0.64291,0.711572 0,0.886444 -7.88027,15.361161 -8.362864,15.361161 -0.193525,0 -2.224396,-3.61123 -4.513048,-8.024955 -2.288652,-4.413725 -4.378167,-8.03009 -4.643367,-8.036366 -0.2652,-0.0063 -0.482182,5.196154 -0.482182,11.560956 v 11.572368 h -1.928728 -1.928728 z"
       id="path31913"
       style="fill:#ffffff"
       transform="matrix(0.26458333,0,0,0.26458333,68.709486,7.3866832)" />
    <path
       d="m 76.419565,33.10983 c 0.0017,-3.536001 0.109637,-4.900521 0.239917,-3.032267 0.130281,1.868254 0.128911,4.761346 -0.003,6.429093 -0.131955,1.667747 -0.238548,0.139176 -0.236874,-3.396826 z"
       id="path31952"
       style="stroke-width:0.642909;fill:#ffffff"
       transform="matrix(0.26458333,0,0,0.26458333,68.709486,7.3866832)" />
    <path
       d=""
       id="path31991"
       style="stroke-width:0.642909"
       transform="matrix(0.26458333,0,0,0.26458333,68.709486,7.3866832)" />
    <path
       d="M 21.577644,48.939752 C 18.032691,48.61092 15.35876,47.847269 13.322348,46.582113 9.64966,44.300392 5.6320272,40.420528 3.451447,37.049697 1.5457897,34.103852 0.10593234,28.033708 0.08642722,22.863463 0.07991287,21.136698 0.13864827,20.641527 0.5256979,19.160181 1.2093985,16.543469 2.6957652,13.802353 4.9887962,10.929459 6.128819,9.5011463 8.7657488,6.8755288 10.246367,5.694443 c 1.931306,-1.5405974 4.319441,-3.117235 5.60373,-3.6995592 3.395874,-1.53976247 7.910365,-2.29294867 10.51065,-1.75356976 1.898781,0.39386545 4.630682,1.79392496 7.86027,4.02827436 1.82902,1.2653842 4.187879,2.9893379 5.289606,3.8658682 3.495988,2.7813954 5.617646,5.3502774 5.61213,6.7951084 -8.04e-4,0.208293 -0.09055,0.758432 -0.199464,1.222532 -0.252938,1.077853 -0.258208,1.627903 -0.02009,2.096907 0.09945,0.195881 0.493807,0.753505 0.876349,1.239166 1.641296,2.083727 2.178538,3.440341 2.179652,5.50393 0.0014,2.685079 -0.946477,5.614818 -3.718274,11.492004 -1.974181,4.185962 -2.922947,5.788904 -4.236297,7.157227 -1.354505,1.411201 -2.622257,2.326095 -4.392557,3.169959 -2.125337,1.013103 -4.387988,1.58729 -7.926788,2.011562 -1.265377,0.151707 -4.964816,0.221909 -6.10764,0.1159 z m 4.973725,-1.927531 c 4.710321,-0.237901 7.355556,-0.964688 10.048512,-2.76086 1.075448,-0.717314 2.58356,-2.204029 3.280421,-3.233879 0.652253,-0.963926 3.716987,-7.11347 3.716987,-7.45832 0,-0.119811 -1.191057,-1.09927 -2.027386,-1.66721 -0.255138,-0.173261 -0.463888,-0.351632 -0.463888,-0.39638 0,-0.133285 0.239591,-0.555561 0.315214,-0.555561 0.08182,0 0.984728,0.686774 1.879679,1.42973 0.355059,0.294758 0.657054,0.490176 0.695136,0.449816 0.03703,-0.03925 0.178819,-0.335859 0.315075,-0.659132 l 0.24774,-0.587768 -0.219603,-0.206058 c -0.120782,-0.113332 -0.815614,-0.608273 -1.544071,-1.099869 -0.728458,-0.491596 -1.361241,-0.919564 -1.406186,-0.951042 -0.0829,-0.05806 0.169562,-0.625859 0.278278,-0.625859 0.135334,0 1.962915,1.294808 2.687841,1.904287 0.173706,0.146042 0.340544,0.265532 0.370753,0.265532 0.08155,0 0.45767,-0.872583 0.54601,-1.266733 0.07399,-0.330143 0.0669,-0.350687 -0.195801,-0.56723 -0.149917,-0.123574 -0.894118,-0.599839 -1.653781,-1.058366 -1.586907,-0.957845 -1.714008,-1.060497 -1.593011,-1.286582 0.207612,-0.387926 0.294238,-0.357023 1.931708,0.689111 0.859623,0.54919 1.621793,0.998526 1.693713,0.998526 0.133624,0 0.24075,-0.398187 0.358377,-1.332091 l 0.05138,-0.407908 -0.454248,-0.404865 c -0.249836,-0.222675 -0.902805,-0.726226 -1.451043,-1.119001 -0.548239,-0.392775 -0.998596,-0.747453 -1.000795,-0.788172 -0.0057,-0.104958 0.244802,-0.367965 0.350425,-0.367965 0.04863,0 0.648768,0.430751 1.333636,0.957224 l 1.245214,0.957223 0.023,-0.708249 c 0.01265,-0.389537 -0.0327,-1.082474 -0.100768,-1.53986 -0.164775,-1.107127 -0.47368,-1.737951 -1.881239,-3.841738 -1.220193,-1.823742 -1.355553,-2.14143 -1.268262,-2.976586 0.02655,-0.254027 0.139263,-0.746792 0.250471,-1.095033 C 43.197373,14.804147 43.18202,14.654961 42.74115,14.052391 41.474868,12.321664 38.228606,9.1270462 35.882377,7.3027301 35.012401,6.6262778 31.309561,4.0830402 30.09714,3.3292299 27.807793,1.9058522 26.330896,1.3661823 24.724931,1.3661823 c -2.326262,0 -6.801554,1.4315545 -9.817471,3.1404086 C 12.517535,5.8607507 10.737049,7.2154821 8.7954472,9.1570837 4.3457039,13.606827 2.1317383,18.286976 1.9142473,23.703396 c -0.085221,2.122361 0.1723931,4.061715 0.863615,6.501408 0.7356508,2.596505 1.9393384,5.478592 2.928076,7.010931 0.740948,1.148314 3.0446266,3.562452 4.7413387,4.968678 l 0.803636,0.666051 0.843819,-0.05024 c 1.064979,-0.06341 3.133538,0.07442 3.640191,0.242552 0.755892,0.250834 1.714075,1.333003 2.420281,2.733454 l 0.369325,0.732395 0.582285,0.09095 c 1.253219,0.195744 2.728438,0.347407 3.957558,0.406865 1.883766,0.09113 1.800009,0.09099 3.486997,0.0058 z m -9.044901,-0.758526 c 0.09015,-0.234926 -0.445726,-1.119097 -1.028619,-1.697174 -0.52832,-0.523955 -0.627861,-0.585851 -1.292398,-0.803637 -0.629769,-0.206391 -0.837437,-0.235959 -1.657232,-0.235959 -0.515483,0 -0.965057,0.02766 -0.999053,0.06148 -0.17014,0.169218 1.02929,1.071603 2.217567,1.668376 0.60522,0.303951 2.527938,1.112573 2.663494,1.120163 0.02842,0.0016 0.07173,-0.04937 0.09624,-0.113246 z"
       id="path32186"
       style="fill:#ffffff"
       transform="matrix(0.26458333,0,0,0.26458333,68.709486,7.3866832)" />
    <path
       d="m 34.65112,35.396762 c -1.111025,-0.40759 -1.756114,-1.836766 -1.572537,-3.483914 0.183564,-1.647037 1.082307,-3.015716 2.445149,-3.72367 0.803668,-0.417481 1.905588,-0.728219 2.390714,-0.674176 1.443781,0.160839 2.505037,1.865523 2.507479,4.027737 9.59e-4,0.848166 -0.01,0.905007 -0.269393,1.402226 -0.468083,0.897116 -1.36059,1.625891 -2.596896,2.120491 -1.102822,0.441198 -2.248688,0.571903 -2.904516,0.331306 z m 2.213857,-0.812269 c 0.634867,-0.187344 1.494431,-0.628575 2.004639,-1.029019 0.840541,-0.659712 1.203726,-1.843519 0.954393,-3.110858 -0.406673,-2.067076 -2.140868,-2.69674 -4.062627,-1.475086 -0.927119,0.589364 -1.650928,1.731041 -1.8083,2.852261 -0.12445,0.886666 0.0783,2.020227 0.429385,2.400675 0.513459,0.556402 1.390429,0.684291 2.48251,0.362027 z"
       id="path32225"
       style="stroke-width:0.0803637;fill:#ffffff"
       transform="matrix(0.26458333,0,0,0.26458333,68.709486,7.3866832)" />
    <path
       d="m 18.764916,24.581973 c -2.459669,-0.232276 -4.24464,-1.460113 -4.950784,-3.405517 -0.40546,-1.11703 -0.420396,-2.800925 -0.034,-3.833651 0.630754,-1.685839 2.562197,-2.814828 5.346425,-3.125151 2.438175,-0.271754 4.273621,0.529998 5.136667,2.243778 0.819449,1.627209 0.858802,3.878126 0.0941,5.382161 -1.014367,1.99507 -3.027108,2.980632 -5.5924,2.73838 z m 1.530152,-1.678943 c 2.020972,-0.38327 3.170357,-2.34204 2.693742,-4.590647 -0.226101,-1.066716 -0.746467,-1.756558 -1.652257,-2.190378 -0.505581,-0.242143 -0.55722,-0.250139 -1.607273,-0.248874 -1.222412,0.0015 -1.769182,0.113374 -2.692183,0.550977 -1.09233,0.517883 -1.633644,1.311974 -1.708121,2.505761 -0.07822,1.2538 0.265534,2.251034 1.018848,2.95567 0.911467,0.852572 2.566836,1.27928 3.947244,1.017491 z"
       id="path32264"
       style="stroke-width:0.0803637;fill:#ffffff"
       transform="matrix(0.26458333,0,0,0.26458333,68.709486,7.3866832)" />
    <path
       style="fill:#ffffff;stroke-width:0.0568257"
       d="m 7.7282943,30.778284 c -0.6921245,-0.32589 -1.0379501,-0.945165 -0.9284602,-1.662606 0.1857551,-1.217176 0.9546621,-2.434092 1.6671942,-2.638596 0.4573246,-0.131257 1.4037505,-0.102389 1.8060517,0.05509 0.695303,0.272169 1.126186,0.75236 1.164644,1.29792 0.05517,0.782624 -0.713397,1.947576 -1.7362354,2.631692 -0.7029984,0.470194 -1.4069703,0.583112 -1.9731943,0.316503 z m 1.2457111,-0.539808 c 0.016866,-0.02729 0.1772137,-0.121318 0.3563275,-0.20895 0.4124156,-0.201776 1.0234981,-0.807307 1.2271681,-1.216019 0.10935,-0.219438 0.154142,-0.396855 0.154142,-0.610544 0,-0.265865 -0.02394,-0.32772 -0.203973,-0.526994 C 10.395485,27.551793 10.158948,27.379111 9.9820322,27.292232 9.7105241,27.158899 9.5894823,27.134475 9.2057623,27.13559 8.829648,27.13669 8.7073998,27.16121 8.497725,27.277654 c -0.4638343,0.257589 -0.9051759,1.029647 -1.0008424,1.750817 -0.092728,0.699016 0.4162671,1.255265 1.1514755,1.258375 0.1622397,6.87e-4 0.3087809,-0.02108 0.3256473,-0.04837 z"
       id="path32453"
       transform="matrix(0.26458333,0,0,0.26458333,68.709486,7.3866832)" />
    <path
       style="fill:#ffffff;stroke-width:0.0568257"
       d="m 18.636668,24.542356 c -1.386153,-0.14587 -2.682747,-0.697713 -3.548946,-1.510464 -1.069911,-1.003895 -1.532448,-2.162134 -1.534048,-3.84141 -0.0012,-1.264424 0.23247,-2.066992 0.8192,-2.813596 1.067833,-1.358798 3.536072,-2.251539 5.958999,-2.155317 2.31757,0.09204 3.765941,1.239836 4.340228,3.439526 0.195721,0.749671 0.245761,2.026428 0.108056,2.757058 -0.177266,0.940533 -0.499218,1.648385 -1.070245,2.353069 -1.106869,1.365948 -2.917347,1.998008 -5.073244,1.771134 z m 1.995617,-1.702322 c 1.100707,-0.335368 1.879018,-1.092489 2.283867,-2.221688 0.13772,-0.384128 0.149457,-0.488107 0.14967,-1.326023 2.27e-4,-0.836111 -0.01208,-0.94612 -0.152843,-1.368273 -0.29113,-0.873089 -0.764095,-1.421707 -1.574931,-1.826847 l -0.426193,-0.212951 -0.897278,-0.01998 c -1.406236,-0.03131 -2.054246,0.09089 -3.049063,0.574942 -0.8471,0.412181 -1.371203,1.045808 -1.572215,1.900766 -0.124688,0.530328 -0.08173,1.729809 0.0779,2.175368 0.401057,1.119396 1.180768,1.849161 2.398574,2.244929 0.83682,0.271953 2.019618,0.3061 2.762511,0.07975 z"
       id="path32492"
       transform="matrix(0.26458333,0,0,0.26458333,68.709486,7.3866832)" />
    <path
       style="fill:#ffffff;stroke-width:0.0568257"
       d="m 30.213598,15.142392 c -0.52946,-0.114948 -1.125921,-0.457145 -1.415059,-0.811839 -0.489197,-0.600109 -0.553977,-1.465881 -0.168103,-2.246644 0.570332,-1.153989 2.168335,-1.935287 3.096635,-1.514012 0.359185,0.163002 0.559209,0.319783 0.805485,0.631345 0.735596,0.930599 0.723991,2.675335 -0.02276,3.422087 -0.524795,0.524795 -1.379673,0.718043 -2.296197,0.519063 z m 1.397411,-0.914812 c 0.237518,-0.11466 0.334514,-0.205187 0.465404,-0.434367 0.31352,-0.548953 0.27587,-1.42016 -0.08494,-1.965372 -0.511621,-0.773112 -1.495427,-0.76648 -2.276108,0.01534 -0.504301,0.505039 -0.671937,1.130763 -0.447123,1.66895 0.323525,0.774496 1.485416,1.129321 2.342762,0.715446 z"
       id="path32531"
       transform="matrix(0.26458333,0,0,0.26458333,68.709486,7.3866832)" />
    <path
       style="fill:#ffffff;stroke-width:0.0568257"
       d="m 34.586307,35.339973 c -0.409121,-0.162096 -0.908263,-0.664567 -1.13768,-1.145267 -0.286359,-0.60001 -0.362177,-1.038262 -0.33177,-1.917712 0.04616,-1.335173 0.408149,-2.250643 1.246897,-3.153444 0.448259,-0.482492 0.926769,-0.809033 1.629521,-1.112006 0.920257,-0.396744 1.755439,-0.540588 2.28487,-0.393524 0.587863,0.163296 1.230702,0.788267 1.609194,1.564466 0.339005,0.695222 0.441432,1.18367 0.472637,2.253882 l 0.02768,0.949384 -0.16874,0.357607 c -0.408839,0.866446 -1.118918,1.53441 -2.191357,2.061388 -0.929798,0.456887 -1.492218,0.605414 -2.39785,0.63324 -0.652541,0.02005 -0.774282,0.0086 -1.043403,-0.09801 z m 1.938655,-0.645958 c 1.171807,-0.248318 2.540628,-1.084443 2.967326,-1.812549 0.539822,-0.921136 0.56349,-2.280044 0.0577,-3.312674 -0.65077,-1.328616 -2.111502,-1.608375 -3.663921,-0.701713 -0.933285,0.545068 -1.665582,1.591771 -1.908573,2.728006 -0.238346,1.114513 0.06309,2.464855 0.639149,2.863156 0.446984,0.309058 1.151654,0.39612 1.908322,0.235774 z"
       id="path32570"
       transform="matrix(0.26458333,0,0,0.26458333,68.709486,7.3866832)" />
    <path
       style="fill:#ffffff;stroke-width:0.0568257"
       d="m 29.313178,45.003596 c -0.523656,-0.103602 -0.937767,-0.435544 -1.166788,-0.935271 -0.103016,-0.224783 -0.130329,-0.385015 -0.130768,-0.767147 -4.89e-4,-0.425122 0.02075,-0.527292 0.177203,-0.852385 0.362716,-0.753692 1.183993,-1.338427 2.233471,-1.590193 1.050348,-0.251975 2.049588,0.508558 2.049588,1.559964 0,1.599495 -1.587145,2.896745 -3.162706,2.585032 z m 1.445769,-0.81391 c 0.628317,-0.321623 1.022054,-0.851217 1.075517,-1.446619 0.07892,-0.878951 -0.483663,-1.439516 -1.268448,-1.263889 -0.729608,0.163279 -1.437233,0.671053 -1.652989,1.186143 -0.232222,0.554401 -0.03054,1.332214 0.412369,1.590371 0.320632,0.186885 1.000676,0.155574 1.433551,-0.06601 z"
       id="path32609"
       transform="matrix(0.26458333,0,0,0.26458333,68.709486,7.3866832)" />
    <path
       style="fill:#ffffff;stroke-width:0.0568257"
       d="m 21.81134,35.807318 c -0.614577,-0.228296 -1.135652,-0.713901 -1.301348,-1.212763 -0.132061,-0.397599 -0.09234,-1.011044 0.08869,-1.369525 0.169027,-0.334725 0.544262,-0.689931 0.899861,-0.851829 0.380211,-0.173103 1.234886,-0.175749 1.603989,-0.005 0.527414,0.244035 0.882453,0.664953 1.05157,1.246695 0.228616,0.786411 -0.189236,1.771001 -0.909386,2.1428 -0.332305,0.171563 -1.039184,0.196017 -1.433375,0.04959 z m 1.011442,-0.602232 c 0.265296,-0.115838 0.409757,-0.246031 0.58173,-0.52427 0.310315,-0.502067 0.246561,-1.059825 -0.168598,-1.474984 -0.286155,-0.286155 -0.600148,-0.388333 -1.036169,-0.337184 -0.70594,0.08281 -1.106481,0.508574 -1.107469,1.177202 -7.26e-4,0.491041 0.348756,0.991984 0.825535,1.18331 0.203018,0.08147 0.693112,0.06843 0.904971,-0.02407 z"
       id="path32648"
       transform="matrix(0.26458333,0,0,0.26458333,68.709486,7.3866832)" />
    <path
       style="fill:#ffffff;stroke-width:0.0568257"
       d="M 7.9837508,30.838118 C 7.390535,30.674119 6.8991672,30.13164 6.8195608,29.552833 6.7290694,28.894882 7.2443693,27.56967 7.8336972,26.944748 c 0.3422732,-0.362945 0.6133399,-0.47728 1.2049033,-0.508223 0.877714,-0.04591 1.4322515,0.111132 1.9070215,0.540058 0.627242,0.566675 0.600946,1.350454 -0.07711,2.298442 -0.814062,1.138133 -2.0329507,1.798582 -2.8847572,1.563093 z m 1.318412,-0.758653 c 0.4539935,-0.264419 1.1225152,-0.931683 1.2848432,-1.282426 0.08344,-0.180298 0.124637,-0.379266 0.124637,-0.602022 0,-0.313289 -0.0134,-0.345985 -0.229403,-0.559853 -0.126172,-0.124923 -0.347317,-0.286022 -0.4914342,-0.357997 -0.3153625,-0.1575 -0.9066531,-0.212559 -1.2590059,-0.117236 -0.7832868,0.211907 -1.4962295,1.712188 -1.1768646,2.476536 0.1724181,0.412654 0.5550431,0.645897 1.0653192,0.649403 0.2721813,0.0019 0.3807165,-0.03098 0.6819083,-0.206405 z"
       id="path32687"
       transform="matrix(0.26458333,0,0,0.26458333,68.709486,7.3866832)" />
    <path
       style="fill:#ffffff;stroke-width:0.0568257"
       d="m 6.4497162,20.844797 c -0.1093895,-0.03124 -0.206894,-0.06464 -0.2166767,-0.07422 -0.037952,-0.03716 0.3537087,-1.514237 0.6171872,-2.327611 0.4048151,-1.249688 0.947448,-2.308843 1.6980181,-3.314328 0.37556,-0.503111 0.8866767,-1.019424 1.1501469,-1.161841 0.1738781,-0.09399 0.1884618,-0.09309 0.3978243,0.02458 0.119531,0.06718 0.274937,0.184191 0.345346,0.260023 l 0.128017,0.137878 -0.140066,0.09326 c -0.9899243,0.6591 -1.7439818,1.505229 -2.2685387,2.545528 -0.287124,0.569424 -0.4353639,1.025187 -0.7988438,2.456042 -0.1601922,0.630605 -0.3153136,1.209823 -0.3447143,1.287153 -0.059106,0.15546 -0.2116918,0.175226 -0.5677,0.07354 z"
       id="path32726"
       transform="matrix(0.26458333,0,0,0.26458333,68.709486,7.3866832)" />
    <path
       style="fill:#ffffff;stroke-width:0.0568257"
       d="m 12.861049,37.629324 c -0.718959,-0.741573 -1.419583,-1.577113 -2.02921,-2.41997 -0.45358,-0.627108 -0.454413,-0.655369 -0.02534,-0.858976 0.171132,-0.08121 0.207257,-0.08294 0.264755,-0.01272 1.405824,1.716909 2.595327,3.447272 2.595327,3.775403 0,0.273163 -0.171647,0.170086 -0.80553,-0.483735 z"
       id="path32765"
       transform="matrix(0.26458333,0,0,0.26458333,68.709486,7.3866832)" />
    <path
       style="fill:#ffffff;stroke-width:0.0568257"
       d="M 14.447939,36.813276 C 13.826794,36.069075 13.288468,35.346395 12.70382,34.471873 12.38079,33.98868 12.307484,33.84254 12.367749,33.801889 c 0.04239,-0.0286 0.192961,-0.112495 0.334596,-0.186445 l 0.257518,-0.134454 0.134984,0.236181 c 0.07424,0.129899 0.536909,0.862684 1.028149,1.62841 0.49124,0.765726 0.946324,1.497565 1.011298,1.626309 l 0.118134,0.23408 -0.133604,0.125514 -0.133604,0.125514 z"
       id="path32804"
       transform="matrix(0.26458333,0,0,0.26458333,68.709486,7.3866832)" />
    <path
       style="fill:#ffffff;stroke-width:0.0568257"
       d="M 10.844763,38.225258 C 10.443379,37.810999 9.8674086,37.153424 9.5648294,36.763981 8.9398491,35.959582 8.9379948,35.945044 9.4274073,35.686535 l 0.2689582,-0.142064 0.3287885,0.347765 c 0.405804,0.429224 1.373909,1.714906 1.741952,2.313381 0.301677,0.490555 0.299594,0.572023 -0.01793,0.701589 l -0.174619,0.07125 z"
       id="path32843"
       transform="matrix(0.26458333,0,0,0.26458333,68.709486,7.3866832)" />
    <path
       style="fill:#000000;stroke-width:0.0568257"
       d=""
       id="path32882"
       transform="matrix(0.26458333,0,0,0.26458333,68.709486,7.3866832)" />
    <path
       style="fill:#ffffff;stroke-width:0.0568257"
       d="m 40.630371,17.153578 c -0.981872,-0.832617 -2.699221,-2.348301 -2.699221,-2.382257 0,-0.04708 0.494007,-0.508072 0.544454,-0.508072 0.01956,0 0.231253,0.163221 0.470432,0.362714 0.564972,0.471227 1.537519,1.482414 1.964253,2.042293 0.300234,0.393909 0.330913,0.458395 0.282954,0.594763 -0.02958,0.08412 -0.09162,0.158967 -0.137854,0.166318 -0.04623,0.0074 -0.237494,-0.11674 -0.425018,-0.275759 z"
       id="path32921"
       transform="matrix(0.26458333,0,0,0.26458333,68.709486,7.3866832)" />
    <path
       style="fill:#ffffff;stroke-width:0.0568257"
       d="m 40.181832,13.928367 -1.129382,-1.130442 0.135465,-0.243407 c 0.07451,-0.133874 0.169523,-0.254507 0.211149,-0.268074 0.117859,-0.03841 1.424679,1.323603 1.78765,1.863154 0.178718,0.26566 0.324831,0.529449 0.324698,0.586199 -2.85e-4,0.120978 -0.09976,0.323012 -0.159046,0.323012 -0.02263,0 -0.549375,-0.508699 -1.170534,-1.130442 z"
       id="path32960"
       transform="matrix(0.26458333,0,0,0.26458333,68.709486,7.3866832)" />
    <path
       style="fill:#ffffff;stroke-width:0.113651"
       d="M 72.111805,24.491874 V 9.5467165 h 2.829308 2.829307 l 4.023576,7.6425365 c 2.278113,4.327139 4.097627,7.656798 4.194277,7.675411 0.121422,0.02338 1.33385,-2.181905 4.199714,-7.638866 l 4.029012,-7.6717395 2.699221,-0.00367 2.69922,-0.00367 V 24.491874 39.437031 h -2.272484 -2.272484 l -0.02896,-11.44091 c -0.01942,-7.671837 -0.06726,-11.453676 -0.145211,-11.479659 -0.06394,-0.02131 -0.636261,1.038103 -1.271825,2.354253 -1.102479,2.283061 -7.622706,14.317933 -7.754601,14.31325 -0.120026,-0.0043 -6.910533,-12.564285 -7.909831,-14.630376 -0.551755,-1.140776 -1.070465,-2.074138 -1.152689,-2.074138 -0.122576,0 -0.149498,2.0671 -0.149498,11.47879 v 11.47879 h -2.273028 -2.273027 z"
       id="path33087"
       transform="matrix(0.26458333,0,0,0.26458333,68.709486,7.3866832)" />
  </g>
</svg>
